<?xml version="1.0" encoding="iso-8859-1"?>
<!-- Uploaded to: SVG Repo, www.svgrepo.com, Generator: SVG Repo Mixer Tools -->
<svg fill="#000000" height="800px" width="800px" version="1.1" id="Layer_1" xmlns="http://www.w3.org/2000/svg" xmlns:xlink="http://www.w3.org/1999/xlink" 
	 viewBox="0 0 512 512" xml:space="preserve">
<g>
	<g>
		<path d="M483.556,227.556H284.444V56.889h199.111c15.709,0,28.444-12.736,28.444-28.444S499.264,0,483.556,0H256
			c-15.709,0-28.444,12.736-28.444,28.444v199.111H56.889V28.444C56.889,12.736,44.153,0,28.444,0S0,12.736,0,28.444V256
			c0,15.709,12.736,28.444,28.444,28.444h199.111v170.667H28.444C12.736,455.111,0,467.847,0,483.556S12.736,512,28.444,512H256
			c15.709,0,28.444-12.736,28.444-28.444V284.444h170.667v199.111c0,15.709,12.736,28.444,28.444,28.444S512,499.264,512,483.556
			V256C512,240.291,499.264,227.556,483.556,227.556z"/>
	</g>
</g>
<g>
	<g>
		<path d="M389.897,122.104c-5.308-5.293-12.629-8.327-20.12-8.327c-7.488,0-14.827,3.034-20.118,8.327
			c-5.291,5.306-8.327,12.629-8.327,20.118c0,7.49,3.036,14.812,8.327,20.12c5.308,5.291,12.629,8.325,20.118,8.325
			c7.49,0,14.812-3.034,20.12-8.325c5.291-5.291,8.325-12.629,8.325-20.12C398.222,134.734,395.188,127.393,389.897,122.104z"/>
	</g>
</g>
<g>
	<g>
		<path d="M389.897,349.66c-5.308-5.293-12.629-8.327-20.12-8.327c-7.488,0-14.827,3.034-20.118,8.327
			c-5.291,5.289-8.327,12.629-8.327,20.118c0,7.49,3.036,14.829,8.327,20.12s12.629,8.325,20.118,8.325
			c7.49,0,14.812-3.034,20.12-8.325c5.291-5.291,8.325-12.629,8.325-20.12C398.222,362.289,395.188,354.949,389.897,349.66z"/>
	</g>
</g>
<g>
	<g>
		<path d="M162.342,349.66c-5.291-5.293-12.629-8.327-20.12-8.327c-7.488,0-14.827,3.034-20.118,8.327
			c-5.291,5.306-8.327,12.629-8.327,20.118c0,7.49,3.036,14.812,8.327,20.101c5.291,5.312,12.629,8.344,20.118,8.344
			c7.49,0,14.812-3.034,20.12-8.344c5.291-5.289,8.325-12.61,8.325-20.101C170.667,362.289,167.633,354.966,162.342,349.66z"/>
	</g>
</g>
<g>
	<g>
		<path d="M162.342,122.104c-5.308-5.293-12.629-8.327-20.12-8.327c-7.488,0-14.827,3.034-20.118,8.327
			c-5.291,5.306-8.327,12.629-8.327,20.118c0,7.49,3.036,14.812,8.327,20.12c5.291,5.291,12.629,8.325,20.118,8.325
			c7.49,0,14.812-3.034,20.12-8.325c5.291-5.308,8.325-12.629,8.325-20.12C170.667,134.734,167.633,127.41,162.342,122.104z"/>
	</g>
</g>
</svg>